<svg xmlns="http://www.w3.org/2000/svg" viewBox="310 310 1050 290" fill="none">
  <defs>
    <filter id="orangeGlow" x="-20%" y="-20%" width="140%" height="140%">
      <feGaussianBlur stdDeviation="12" result="blur"/>
      <feColorMatrix in="blur" type="matrix" values="1 0 0 0 0  0 0.7 0 0 0  0 0 0 0 0  0 0 0 0.55 0"/>
    </filter>
  </defs>
  <path d="M 531.0,502.0 L 527.0,508.0 L 529.0,515.0 L 532.0,517.0 L 540.0,516.0 L 543.0,512.0 L 543.0,506.0 L 537.0,501.0 Z" fill="#FDB51C" filter="url(#orangeGlow)" opacity="0.45" fill-rule="evenodd"/>
  <path d="M 502.0,501.0 L 497.0,505.0 L 496.0,512.0 L 501.0,517.0 L 507.0,517.0 L 511.0,514.0 L 512.0,507.0 L 508.0,502.0 Z" fill="#FDB51C" filter="url(#orangeGlow)" opacity="0.45" fill-rule="evenodd"/>
  <path d="M 562.0,448.0 L 536.0,436.0 L 509.0,435.0 L 485.0,443.0 L 470.0,454.0 L 459.0,467.0 L 451.0,482.0 L 448.0,493.0 L 447.0,521.0 L 451.0,535.0 L 460.0,550.0 L 458.0,586.0 L 461.0,590.0 L 469.0,590.0 L 493.0,578.0 L 509.0,581.0 L 537.0,580.0 L 560.0,570.0 L 578.0,553.0 L 590.0,529.0 L 592.0,520.0 L 592.0,497.0 L 584.0,473.0 L 575.0,460.0 Z M 550.0,464.0 L 564.0,479.0 L 572.0,498.0 L 572.0,519.0 L 569.0,529.0 L 562.0,541.0 L 549.0,553.0 L 534.0,560.0 L 519.0,562.0 L 496.0,557.0 L 478.0,565.0 L 477.0,556.0 L 479.0,543.0 L 470.0,529.0 L 466.0,511.0 L 468.0,495.0 L 476.0,478.0 L 491.0,463.0 L 510.0,455.0 L 529.0,455.0 Z" fill="#FDB51C" filter="url(#orangeGlow)" opacity="0.45" fill-rule="evenodd"/>
  <path d="M 1177.0,390.0 L 1176.0,392.0 L 1236.0,476.0 L 1241.0,486.0 L 1175.0,580.0 L 1211.0,581.0 L 1262.0,510.0 L 1313.0,581.0 L 1348.0,581.0 L 1345.0,574.0 L 1283.0,486.0 L 1348.0,392.0 L 1346.0,390.0 L 1313.0,390.0 L 1310.0,392.0 L 1262.0,460.0 L 1212.0,390.0 Z" fill="#FDB51C" filter="url(#orangeGlow)" opacity="0.45" fill-rule="evenodd"/>
  <path d="M 339.0,521.0 L 341.0,528.0 L 348.0,532.0 L 411.0,531.0 L 415.0,525.0 L 415.0,496.0 L 419.0,478.0 L 427.0,459.0 L 439.0,441.0 L 455.0,425.0 L 480.0,410.0 L 505.0,403.0 L 521.0,402.0 L 539.0,404.0 L 556.0,409.0 L 576.0,420.0 L 599.0,441.0 L 611.0,459.0 L 619.0,479.0 L 623.0,501.0 L 623.0,527.0 L 625.0,530.0 L 629.0,532.0 L 690.0,532.0 L 696.0,529.0 L 699.0,522.0 L 696.0,514.0 L 693.0,512.0 L 645.0,511.0 L 642.0,486.0 L 635.0,462.0 L 626.0,444.0 L 614.0,427.0 L 597.0,410.0 L 576.0,396.0 L 551.0,386.0 L 529.0,382.0 L 509.0,382.0 L 487.0,386.0 L 468.0,393.0 L 445.0,407.0 L 424.0,427.0 L 406.0,455.0 L 396.0,486.0 L 394.0,510.0 L 345.0,512.0 Z" fill="#FDB51C" filter="url(#orangeGlow)" opacity="0.45" fill-rule="evenodd"/>
  <path d="M 347.0,475.0 L 347.0,483.0 L 351.0,488.0 L 359.0,489.0 L 366.0,484.0 L 374.0,454.0 L 388.0,426.0 L 407.0,401.0 L 436.0,376.0 L 455.0,365.0 L 486.0,354.0 L 505.0,351.0 L 532.0,351.0 L 551.0,354.0 L 576.0,362.0 L 592.0,370.0 L 616.0,387.0 L 639.0,411.0 L 653.0,432.0 L 664.0,455.0 L 672.0,485.0 L 678.0,489.0 L 684.0,489.0 L 688.0,487.0 L 691.0,482.0 L 686.0,457.0 L 672.0,424.0 L 650.0,392.0 L 629.0,371.0 L 605.0,354.0 L 581.0,342.0 L 551.0,333.0 L 526.0,330.0 L 493.0,332.0 L 462.0,340.0 L 431.0,355.0 L 410.0,370.0 L 392.0,387.0 L 372.0,413.0 L 359.0,437.0 Z" fill="#FDB51C" filter="url(#orangeGlow)" opacity="0.45" fill-rule="evenodd"/>
  <path d="M 531.0,502.0 L 527.0,508.0 L 529.0,515.0 L 532.0,517.0 L 540.0,516.0 L 543.0,512.0 L 543.0,506.0 L 537.0,501.0 Z" fill="#FDB51C" fill-rule="evenodd"/>
  <path d="M 502.0,501.0 L 497.0,505.0 L 496.0,512.0 L 501.0,517.0 L 507.0,517.0 L 511.0,514.0 L 512.0,507.0 L 508.0,502.0 Z" fill="#FDB51C" fill-rule="evenodd"/>
  <path d="M 562.0,448.0 L 536.0,436.0 L 509.0,435.0 L 485.0,443.0 L 470.0,454.0 L 459.0,467.0 L 451.0,482.0 L 448.0,493.0 L 447.0,521.0 L 451.0,535.0 L 460.0,550.0 L 458.0,586.0 L 461.0,590.0 L 469.0,590.0 L 493.0,578.0 L 509.0,581.0 L 537.0,580.0 L 560.0,570.0 L 578.0,553.0 L 590.0,529.0 L 592.0,520.0 L 592.0,497.0 L 584.0,473.0 L 575.0,460.0 Z M 550.0,464.0 L 564.0,479.0 L 572.0,498.0 L 572.0,519.0 L 569.0,529.0 L 562.0,541.0 L 549.0,553.0 L 534.0,560.0 L 519.0,562.0 L 496.0,557.0 L 478.0,565.0 L 477.0,556.0 L 479.0,543.0 L 470.0,529.0 L 466.0,511.0 L 468.0,495.0 L 476.0,478.0 L 491.0,463.0 L 510.0,455.0 L 529.0,455.0 Z" fill="#FDB51C" fill-rule="evenodd"/>
  <path d="M 1177.0,390.0 L 1176.0,392.0 L 1236.0,476.0 L 1241.0,486.0 L 1175.0,580.0 L 1211.0,581.0 L 1262.0,510.0 L 1313.0,581.0 L 1348.0,581.0 L 1345.0,574.0 L 1283.0,486.0 L 1348.0,392.0 L 1346.0,390.0 L 1313.0,390.0 L 1310.0,392.0 L 1262.0,460.0 L 1212.0,390.0 Z" fill="#FDB51C" fill-rule="evenodd"/>
  <path d="M 339.0,521.0 L 341.0,528.0 L 348.0,532.0 L 411.0,531.0 L 415.0,525.0 L 415.0,496.0 L 419.0,478.0 L 427.0,459.0 L 439.0,441.0 L 455.0,425.0 L 480.0,410.0 L 505.0,403.0 L 521.0,402.0 L 539.0,404.0 L 556.0,409.0 L 576.0,420.0 L 599.0,441.0 L 611.0,459.0 L 619.0,479.0 L 623.0,501.0 L 623.0,527.0 L 625.0,530.0 L 629.0,532.0 L 690.0,532.0 L 696.0,529.0 L 699.0,522.0 L 696.0,514.0 L 693.0,512.0 L 645.0,511.0 L 642.0,486.0 L 635.0,462.0 L 626.0,444.0 L 614.0,427.0 L 597.0,410.0 L 576.0,396.0 L 551.0,386.0 L 529.0,382.0 L 509.0,382.0 L 487.0,386.0 L 468.0,393.0 L 445.0,407.0 L 424.0,427.0 L 406.0,455.0 L 396.0,486.0 L 394.0,510.0 L 345.0,512.0 Z" fill="#FDB51C" fill-rule="evenodd"/>
  <path d="M 347.0,475.0 L 347.0,483.0 L 351.0,488.0 L 359.0,489.0 L 366.0,484.0 L 374.0,454.0 L 388.0,426.0 L 407.0,401.0 L 436.0,376.0 L 455.0,365.0 L 486.0,354.0 L 505.0,351.0 L 532.0,351.0 L 551.0,354.0 L 576.0,362.0 L 592.0,370.0 L 616.0,387.0 L 639.0,411.0 L 653.0,432.0 L 664.0,455.0 L 672.0,485.0 L 678.0,489.0 L 684.0,489.0 L 688.0,487.0 L 691.0,482.0 L 686.0,457.0 L 672.0,424.0 L 650.0,392.0 L 629.0,371.0 L 605.0,354.0 L 581.0,342.0 L 551.0,333.0 L 526.0,330.0 L 493.0,332.0 L 462.0,340.0 L 431.0,355.0 L 410.0,370.0 L 392.0,387.0 L 372.0,413.0 L 359.0,437.0 Z" fill="#FDB51C" fill-rule="evenodd"/>
  <path d="M 1153.0,390.0 L 1141.0,388.0 L 1126.0,389.0 L 1108.0,397.0 L 1099.0,407.0 L 1094.0,419.0 L 1093.0,446.0 L 1091.0,448.0 L 1074.0,448.0 L 1072.0,450.0 L 1072.0,472.0 L 1076.0,474.0 L 1091.0,473.0 L 1093.0,475.0 L 1094.0,581.0 L 1120.0,581.0 L 1122.0,579.0 L 1122.0,475.0 L 1133.0,473.0 L 1148.0,474.0 L 1154.0,472.0 L 1153.0,448.0 L 1123.0,448.0 L 1122.0,430.0 L 1126.0,421.0 L 1133.0,416.0 L 1148.0,415.0 L 1155.0,417.0 L 1157.0,415.0 L 1157.0,392.0 Z" fill="#F2F2F2" fill-rule="evenodd"/>
  <path d="M 1064.0,390.0 L 1052.0,388.0 L 1037.0,389.0 L 1020.0,396.0 L 1014.0,401.0 L 1007.0,412.0 L 1003.0,428.0 L 1003.0,447.0 L 982.0,449.0 L 982.0,472.0 L 1003.0,475.0 L 1004.0,581.0 L 1032.0,580.0 L 1032.0,475.0 L 1038.0,473.0 L 1063.0,473.0 L 1063.0,449.0 L 1034.0,448.0 L 1032.0,446.0 L 1032.0,433.0 L 1036.0,422.0 L 1046.0,415.0 L 1068.0,416.0 L 1068.0,392.0 Z" fill="#F2F2F2" fill-rule="evenodd"/>
  <path d="M 854.0,388.0 L 840.0,391.0 L 821.0,399.0 L 805.0,410.0 L 794.0,421.0 L 783.0,437.0 L 775.0,456.0 L 771.0,476.0 L 771.0,498.0 L 775.0,517.0 L 782.0,534.0 L 791.0,548.0 L 807.0,564.0 L 819.0,572.0 L 837.0,580.0 L 855.0,584.0 L 882.0,584.0 L 897.0,581.0 L 917.0,573.0 L 928.0,566.0 L 945.0,550.0 L 955.0,535.0 L 963.0,517.0 L 967.0,498.0 L 967.0,474.0 L 964.0,459.0 L 956.0,439.0 L 942.0,419.0 L 929.0,407.0 L 917.0,399.0 L 898.0,391.0 L 875.0,387.0 Z M 858.0,417.0 L 871.0,416.0 L 888.0,419.0 L 911.0,431.0 L 928.0,451.0 L 933.0,462.0 L 937.0,481.0 L 937.0,491.0 L 933.0,510.0 L 928.0,521.0 L 920.0,532.0 L 900.0,548.0 L 877.0,555.0 L 855.0,554.0 L 842.0,550.0 L 831.0,544.0 L 816.0,530.0 L 810.0,521.0 L 802.0,500.0 L 801.0,481.0 L 803.0,468.0 L 814.0,445.0 L 834.0,426.0 Z" fill="#F2F2F2" fill-rule="evenodd"/>
</svg>
