<svg xmlns="http://www.w3.org/2000/svg" viewBox="0 0 48 48">
  <rect width="48" height="48" rx="10" fill="#0a0a0a"/>
  <path d="M 8 34 A 17 17 0 0 1 40 34" stroke="#f59e0b" stroke-width="2.6" stroke-linecap="round" fill="none" opacity="0.3"/>
  <path d="M 13 34 A 12 12 0 0 1 35 34" stroke="#f59e0b" stroke-width="2.6" stroke-linecap="round" fill="none" opacity="0.6"/>
  <path d="M 17 34 A 7 7 0 0 1 31 34" stroke="#f59e0b" stroke-width="2.6" stroke-linecap="round" fill="none"/>
  <path d="M 14 24 h 7 q 3 0 3 3 v 7 q 0 3 -3 3 h -4 l -4 4 l 1 -4 q -3 0 -3 -3 v -7 q 0 -3 3 -3 z" fill="#0a0a0a" stroke="#f59e0b" stroke-width="2.2" stroke-linejoin="round"/>
  <circle cx="14.5" cy="30.5" r="1.4" fill="#f59e0b"/>
  <circle cx="17.5" cy="30.5" r="1.4" fill="#f59e0b"/>
  <circle cx="20.5" cy="30.5" r="1.4" fill="#f59e0b"/>
</svg>
